<svg xmlns="http://www.w3.org/2000/svg" width="600" height="515.373" viewBox="0 0 600 515.373"><path d="M21.758 355.359H5.076v86.437h16.682v-86.437zm58.831 55.151l-.354.061-27.428-55.21H36.064v86.437h16.743v-55.093l.355-.06 27.427 55.153h16.744v-86.437H80.589v55.15zm48.684-38.765c2.411-3.01 5.78-4.514 10.091-4.514 3.998 0 6.987 1.029 8.967 3.09 1.976 2.057 2.969 5.34 2.969 9.854h15.73l.117-.355c.162-8.232-2.154-14.575-6.946-19.028-4.787-4.453-11.89-6.682-21.313-6.682-9.022 0-16.277 2.73-21.758 8.197-5.482 5.461-8.223 13.177-8.223 23.152V411.7c0 10.01 2.822 17.741 8.46 23.182 5.644 5.441 13.132 8.161 22.474 8.161 7.36 0 13.369-1.246 18.014-3.738 4.651-2.493 8.208-5.461 10.66-8.906v-33.664h-29.92v11.58h13.176v17.453c-.988 1.267-2.411 2.285-4.27 3.055-1.865.775-4.418 1.16-7.66 1.16-4.555 0-8.055-1.504-10.507-4.514-2.457-3.004-3.683-7.599-3.683-13.77v-26.363c0-6.054 1.205-10.583 3.622-13.592zm68.034 31.88h26.42v-13.06h-26.42V368.48h31.526v-13.12h-48.265v86.436h48.381v-13.06h-31.642v-25.112zm-.654-56.816h14.49l14.96-15.436-.178-.355h-18.643l-10.629 15.791zm87.449 63.701l-.355.061-27.427-55.21h-16.744v86.437h16.744v-55.093l.354-.06 27.428 55.153h16.743v-86.437h-16.743v55.15zm30.99 31.286h16.682v-86.437h-16.682v86.437zm47.732-38.171h26.42v-13.06h-26.42V368.48h31.526v-13.12h-48.27v86.436h48.386v-13.06h-31.642v-25.112zm85.845 8.195c0 5.932-1.216 10.446-3.648 13.531-2.437 3.09-5.81 4.63-10.122 4.63-4.235 0-7.584-1.55-10.036-4.655-2.452-3.11-3.677-7.61-3.677-13.506v-56.461h-16.683v56.46c0 9.773 2.807 17.423 8.43 22.945 5.618 5.522 12.938 8.283 21.966 8.283 9.063 0 16.414-2.75 22.053-8.253 5.638-5.501 8.46-13.161 8.46-22.974v-56.461h-16.743v56.46zm83.533 15.312v-6.292c0-5.223-.993-9.574-2.969-13.06-1.981-3.48-5.223-5.978-9.737-7.482 3.916-1.936 6.915-4.55 8.992-7.832 2.082-3.288 3.12-7.164 3.12-11.637 0-7.994-2.466-14.23-7.39-18.704-4.93-4.468-11.688-6.707-20.275-6.707h-25.887v86.38h16.743v-34.671h10.092c3.404 0 6.018 1.205 7.837 3.622 1.819 2.416 2.73 5.816 2.73 10.213v6.054c0 2.847.188 5.71.563 8.577.38 2.872 1.256 4.94 2.644 6.206h17.336v-1.247c-1.423-1.226-2.416-3.166-2.969-5.82-.557-2.65-.83-5.183-.83-7.6zm-20.158-36.303c-1.88 2.158-4.62 3.237-8.222 3.237h-9.023v-25.588h9.144c3.562 0 6.272 1.19 8.131 3.561 1.86 2.376 2.792 5.583 2.792 9.62 0 3.957-.943 7.017-2.822 9.17zm81.512 11.314c-4.29-4.235-10.614-7.741-18.967-10.512-4.91-2.255-8.37-4.332-10.39-6.231-2.017-1.9-3.025-4.317-3.025-7.245 0-3.166.886-5.805 2.67-7.923 1.783-2.118 4.275-3.176 7.482-3.176 3.719 0 6.576 1.154 8.577 3.47 1.996 2.315 2.999 5.71 2.999 10.182h16.267l.116-.354c.158-7.995-2.315-14.367-7.421-19.12-5.107-4.746-11.855-7.122-20.244-7.122-7.913 0-14.428 2.229-19.53 6.677-5.106 4.453-7.66 10.223-7.66 17.305 0 7.128 2.235 12.665 6.708 16.627 4.473 3.957 11.14 7.498 20.006 10.624 4.554 1.9 7.71 3.85 9.473 5.85 1.758 1.997 2.64 4.717 2.64 8.162 0 3.283-.902 5.917-2.7 7.898-1.804 1.976-4.504 2.969-8.106 2.969-4.276 0-7.508-1.19-9.707-3.567-2.193-2.37-3.293-6.271-3.293-11.692h-16.328l-.116.354c-.198 9.342 2.609 16.298 8.43 20.868 5.816 4.574 12.822 6.859 21.014 6.859 8.313 0 14.98-2.118 20.006-6.353 5.03-4.235 7.543-10.056 7.543-17.452 0-7.164-2.148-12.868-6.444-17.098zM14.66 470.905c-4.488 0-8.055 1.388-10.7 4.154C1.323 477.83 0 481.731 0 486.757v12.822c0 5.046 1.363 8.941 4.098 11.682 2.73 2.74 6.419 4.109 11.07 4.109 4.534 0 8.02-1.15 10.466-3.455 2.442-2.305 3.622-5.776 3.546-10.406l-.06-.177h-8.106c0 2.811-.451 4.762-1.363 5.861-.912 1.1-2.406 1.646-4.483 1.646-2.275 0-3.977-.754-5.107-2.269-1.125-1.515-1.692-3.845-1.692-6.991v-12.883c0-3.126.527-5.446 1.575-6.961 1.05-1.515 2.62-2.27 4.717-2.27 2.3 0 3.936.553 4.914 1.662.983 1.11 1.47 3.05 1.47 5.821h8.135l.056-.182c.081-4.646-1.145-8.121-3.678-10.416s-6.165-3.445-10.897-3.445zm29.241.623l-12.26 43.218h8.73l2.431-9.347h10.806l2.462 9.347h8.759l-12.26-43.218h-8.668zm.623 27.28l3.592-13.713h.177l3.592 13.713h-7.36zm38.503-9.14c-2.457-1.13-4.19-2.169-5.198-3.121-1.008-.947-1.515-2.153-1.515-3.617 0-1.586.446-2.908 1.338-3.967.891-1.059 2.137-1.585 3.738-1.585 1.86 0 3.293.577 4.291 1.737.998 1.155 1.5 2.852 1.5 5.091h8.13l.061-.182c.082-3.997-1.154-7.184-3.708-9.554-2.553-2.376-5.927-3.562-10.122-3.562-3.961 0-7.214 1.11-9.767 3.339-2.553 2.224-3.83 5.111-3.83 8.653 0 3.56 1.12 6.332 3.354 8.308 2.234 1.98 5.572 3.754 10.005 5.314 2.275.952 3.85 1.925 4.732 2.923.881 1.003 1.322 2.36 1.322 4.083 0 1.642-.45 2.959-1.353 3.947-.896.993-2.249 1.484-4.047 1.484-2.138 0-3.76-.593-4.854-1.778-1.099-1.19-1.651-3.136-1.651-5.851h-8.161l-.061.182c-.096 4.666 1.307 8.146 4.215 10.43 2.913 2.286 6.413 3.43 10.512 3.43 4.154 0 7.487-1.058 10-3.176 2.513-2.117 3.77-5.025 3.77-8.728 0-3.582-1.075-6.43-3.218-8.547-2.148-2.118-5.31-3.87-9.483-5.253zm15.701-11.579h9.884v36.658h8.4V478.09h10.152v-6.56H98.73v6.56zm59.602 29.33v-3.146c0-2.615-.492-4.793-1.485-6.53-.988-1.743-2.609-2.99-4.863-3.744 1.955-.968 3.455-2.275 4.493-3.916 1.039-1.642 1.56-3.582 1.56-5.821 0-3.998-1.23-7.113-3.697-9.347-2.462-2.24-5.841-3.354-10.138-3.354h-12.938v43.188h8.369v-17.336h5.046c1.702 0 3.009.603 3.92 1.809.908 1.21 1.363 2.913 1.363 5.106v3.03c0 1.423.097 2.852.284 4.29.188 1.434.628 2.468 1.318 3.101h8.667v-.623c-.709-.613-1.205-1.586-1.484-2.908-.274-1.327-.415-2.594-.415-3.8zm-10.077-18.152c-.937 1.079-2.31 1.616-4.108 1.616h-4.514v-12.792h4.57c1.783 0 3.135.593 4.068 1.778.932 1.19 1.393 2.792 1.393 4.808 0 1.98-.466 3.51-1.409 4.59zm24.923 6.395h13.207v-6.53h-13.207v-11.044h15.76v-6.56h-24.134v43.223h24.195v-6.53h-15.82v-12.56zm35.858-5.994c-2.457-1.13-4.19-2.169-5.198-3.121-1.008-.947-1.514-2.153-1.514-3.617 0-1.586.446-2.908 1.337-3.967.892-1.059 2.138-1.585 3.739-1.585 1.86 0 3.293.577 4.29 1.737.999 1.155 1.5 2.852 1.5 5.091h8.131l.061-.182c.081-3.997-1.155-7.184-3.708-9.554-2.554-2.376-5.927-3.562-10.122-3.562-3.962 0-7.214 1.11-9.767 3.339-2.554 2.224-3.83 5.111-3.83 8.653 0 3.56 1.12 6.332 3.353 8.308 2.234 1.98 5.573 3.754 10.006 5.314 2.275.952 3.85 1.925 4.731 2.923.882 1.003 1.323 2.36 1.323 4.083 0 1.642-.451 2.959-1.353 3.947-.897.993-2.25 1.484-4.048 1.484-2.138 0-3.759-.593-4.853-1.778-1.1-1.19-1.652-3.136-1.652-5.851h-8.16l-.062.182c-.096 4.666 1.307 8.146 4.215 10.43 2.913 2.286 6.414 3.43 10.512 3.43 4.154 0 7.488-1.058 10-3.176 2.513-2.117 3.77-5.025 3.77-8.728 0-3.582-1.074-6.43-3.217-8.547-2.148-2.118-5.31-3.87-9.484-5.253zm-92.24-338.518c9.838 7.766 22.36 14.93 37.528 21.51l37.104-37.103c-13.992-5.284-24.307-10.35-30.832-15.193-8.288-6.145-12.432-14.013-12.432-23.598 0-10.486 3.82-19.099 11.46-25.831s18.455-10.102 32.437-10.102c15.406 0 27.387 3.784 35.934 11.363 4.914 4.357 8.369 9.828 10.456 16.348l38.776-38.77a83.677 83.677 0 0 0-8.734-8.364c-19.104-15.796-44.323-23.694-75.656-23.694-29.52 0-53.802 7.346-72.835 22.042-19.038 14.702-28.552 33.639-28.552 56.81 0 23.056 8.45 41.248 25.345 54.582zm166.453 75.362c0-23.177-8.156-41.856-24.474-56.035-11.611-10.092-27.032-18.79-46.116-26.162l-37.65 37.646c.085.02.161.05.247.076 19.034 5.826 32.337 12.037 39.916 18.643 7.574 6.601 11.363 15.345 11.363 26.222 0 10.618-3.982 19.099-11.946 25.442-7.964 6.347-19.52 9.519-34.672 9.519-16.834 0-30.168-3.947-40.006-11.85-6.216-4.98-10.451-11.728-12.747-20.218l-39.702 39.702c4.017 4.64 8.703 8.83 14.084 12.564 21.82 15.152 47.945 22.726 78.371 22.726 31.08 0 56.066-6.991 74.972-20.978 18.907-13.983 28.36-33.082 28.36-57.297zM8.633 0v25.786L34.419 0H8.633zM82.09 218.261v25.786l25.786-25.786H82.09zm200.563-117.33V75.147l-25.786 25.786h25.786zm292.564 0V75.147l-25.786 25.786h25.786zm-200.564 117.33v25.786l25.786-25.786h-25.786zM301.62 0v25.786L327.405 0H301.62zM11.291 293.48h52.83V.266L11.29 53.096v240.383zm398.067-142.33c9.838 7.766 22.361 14.93 37.529 21.51l37.104-37.103c-13.993-5.284-24.307-10.35-30.832-15.193-8.288-6.145-12.432-14.013-12.432-23.598 0-10.486 3.82-19.099 11.459-25.831 7.64-6.733 18.456-10.102 32.438-10.102 15.406 0 27.387 3.784 35.933 11.363 4.914 4.357 8.37 9.828 10.457 16.348l38.775-38.77a83.674 83.674 0 0 0-8.734-8.364c-19.104-15.796-44.323-23.694-75.656-23.694-29.52 0-53.801 7.346-72.834 22.042-19.039 14.702-28.553 33.639-28.553 56.81 0 23.056 8.45 41.248 25.346 54.582zm166.454 75.362c0-23.177-8.157-41.856-24.474-56.035-11.612-10.092-27.033-18.79-46.116-26.162l-37.651 37.646c.086.02.162.05.248.076 19.033 5.826 32.336 12.037 39.915 18.643 7.574 6.601 11.363 15.345 11.363 26.222 0 10.618-3.982 19.099-11.945 25.442-7.964 6.347-19.52 9.519-34.672 9.519-16.835 0-30.168-3.947-40.007-11.85-6.216-4.98-10.451-11.728-12.746-20.218l-39.702 39.702c4.017 4.64 8.703 8.83 14.083 12.564 21.82 15.152 47.945 22.726 78.372 22.726 31.08 0 56.066-6.991 74.972-20.978 18.906-13.983 28.36-33.082 28.36-57.297zM356.684.267l-52.829 52.829v240.383h52.829V.267z" fill="#223590"/></svg>